<?xml version="1.0" encoding="utf-8"?>
<!-- Generator: Adobe Illustrator 19.1.0, SVG Export Plug-In . SVG Version: 6.00 Build 0)  -->
<svg version="1.1" id="Layer_1" xmlns="http://www.w3.org/2000/svg" xmlns:xlink="http://www.w3.org/1999/xlink" x="0px" y="0px"
	 viewBox="-233 337.1 144.6 119.9" style="enable-background:new -233 337.1 144.6 119.9;" xml:space="preserve">
<style type="text/css">
	.st0{fill:#2BA8E0;}
</style>
<g>
	<g>
		<path class="st0" d="M-233,448.3c0-3.1,1.2-5.9,3.3-8c2.2-2.2,5.6-3.7,9.7-3.7c3.7,0,6.9,1.6,8.2,3.2l-4.1,4.2
			c-1.1-1-2.8-1.8-4.5-1.8c-1.8,0-3.3,0.6-4.3,1.7c-1,1-1.6,2.5-1.6,4.1c0,2.4,1.8,3.6,3.8,3.6c0.7,0,1.3-0.1,1.7-0.3l0.6-2.1h-3.3
			l1.1-4.2h9.4l-2.8,10c-1.9,1.1-4.7,2-7.5,2C-228.2,457-233,454.5-233,448.3z"/>
		<path class="st0" d="M-210.7,440.4h13.8l-1.2,4.5h-8.5l-0.4,1.6h7.9l-1,3.9h-7.9l-0.5,1.8h8.6l-1.2,4.5h-14L-210.7,440.4z"/>
		<path class="st0" d="M-195.5,440.4h5.1l3.7,7.7l2.1-7.7h5.4l-4.4,16.2h-4.8l-3.9-8.1l-2.2,8.1h-5.4L-195.5,440.4z"/>
		<path class="st0" d="M-177.3,437h6.5l2.4,6.9l6-6.9h7.2l-5.3,19.6h-6.5l2.6-9.7l-6.4,7h-0.1l-2.6-7l-2.6,9.7h-6.4L-177.3,437z"/>
		<path class="st0" d="M-148.8,440.3h5.4l2.5,16.4h-5.8l-0.3-2.2h-5.7l-1.4,2.2h-5.9L-148.8,440.3z M-147.3,450.6l-0.4-3.9l-2.5,3.9
			H-147.3z"/>
		<path class="st0" d="M-140.7,449.7c0-2.6,1-4.9,2.7-6.7c1.9-1.9,4.6-3,8-3c3.1,0,5.7,1.3,6.8,2.7l-3.4,3.5
			c-0.9-0.9-2.3-1.5-3.8-1.5s-2.8,0.5-3.6,1.4c-0.9,0.9-1.3,2-1.3,3.4c0,2,1.5,3,3.2,3c0.6,0,1-0.1,1.4-0.3l0.5-1.7h-2.7l0.9-3.5
			h7.8l-2.3,8.3c-1.6,1-3.9,1.7-6.2,1.7C-136.7,457-140.7,454.8-140.7,449.7z"/>
		<path class="st0" d="M-124.5,453.6h3.1l-0.8,3h-3.1L-124.5,453.6z"/>
		<path class="st0" d="M-120.5,452.8c0-1.3,0.5-2.8,1.7-3.9c1-1,2.4-1.6,4.3-1.6c2,0,3.4,1.1,3.8,2.7l-2.8,1.2
			c-0.2-0.8-0.7-1.1-1.4-1.1c-0.6,0-1.1,0.3-1.5,0.6c-0.5,0.5-0.8,1.2-0.8,1.9c0,1,0.6,1.6,1.5,1.6c0.7,0,1.3-0.3,1.8-1l2.1,1.7
			c-0.9,1.2-2.3,2-4.2,2C-118.7,456.8-120.5,455.3-120.5,452.8z"/>
		<path class="st0" d="M-100.9,451.4c0,1.5-0.6,2.8-1.6,3.8s-2.3,1.6-3.8,1.6c-2.7,0-4.6-1.8-4.6-4.2c0-1.5,0.6-2.8,1.6-3.8
			s2.3-1.6,3.8-1.6C-102.7,447.2-100.9,449-100.9,451.4z M-104.7,453.5c0.5-0.5,0.8-1.2,0.8-1.8c0-1-0.6-1.7-1.7-1.7
			c-0.6,0-1,0.2-1.4,0.6c-0.5,0.5-0.8,1.2-0.8,1.8c0,1,0.6,1.7,1.7,1.7C-105.5,454.1-105.1,453.9-104.7,453.5z"/>
		<path class="st0" d="M-98.8,447.4h3l1.1,3.2l2.9-3.2h3.4l-2.5,9.2H-94l1.2-4.6l-3,3.3h-0.1l-1.2-3.3l-1.2,4.6h-3L-98.8,447.4z"/>
	</g>
</g>
<g>
	<path class="st0" d="M-140.4,393.2l-5.3-15.7h-14.7l-6.1,22.6l4.8-24h11.5l1.8-7.1h-35.7l-4,15.8h12.2l-2.4,8
		c-1.8,0.8-3.9,1.2-6.5,1.2c-1.9,0-3.7-0.3-5.5-0.8c-1.8-0.6-3.3-1.4-4.6-2.6c-1.3-1.2-2.4-2.6-3.1-4.3c-0.8-1.7-1.2-3.7-1.2-6
		c0-3,0.5-5.8,1.5-8.4c1-2.7,2.5-4.9,4.4-6.9c1.9-1.9,4.3-3.5,7.1-4.6c2.8-1.1,6-1.7,9.5-1.7c3.3,0,6.5,0.6,9.5,1.9
		c3,1.2,5.6,2.8,7.7,4.8l15.5-15.9c-1.3-1.6-3-3.1-5-4.6c-2.1-1.5-4.5-2.8-7.2-3.9c-2.7-1.1-5.6-2-8.9-2.8c-3.2-0.7-6.6-1.1-10-1.1
		c-7.5,0-14.3,1.2-20.3,3.5c-6,2.3-11.2,5.5-15.4,9.5c-4.2,4-7.5,8.7-9.8,14.1c-2.3,5.4-3.4,11.1-3.4,17.2c0,5.9,1,10.9,3.1,15.1
		c2.1,4.2,4.8,7.6,8.3,10.2c3.4,2.7,7.4,4.6,11.8,5.9c4.4,1.3,8.9,1.9,13.5,1.9c5.4,0,10.6-0.7,15.5-2.2c0.8-0.2,1.6-0.5,2.4-0.8
		l-2.8,10.5h14.6l5.9-22.1l6,15.9h0.3l14.5-15.9l-5.9,22.1h14.8l12-44.6h-16.4L-140.4,393.2z"/>
	<polygon class="st0" points="-97.9,377.5 -99.7,379.6 -100.4,377.5 -102.4,377.5 -104,383.5 -102,383.5 -101.2,380.5 -100.4,382.7 
		-100.4,382.7 -98.5,380.5 -99.3,383.5 -97.3,383.5 -95.7,377.5 	"/>
	<polygon class="st0" points="-103,377.5 -108.5,377.5 -108.9,379.2 -107.2,379.2 -108.3,383.5 -106.4,383.5 -105.2,379.2 
		-103.5,379.2 	"/>
</g>
</svg>
