<?xml version="1.0" encoding="utf-8"?>
<!-- Generator: Adobe Illustrator 18.0.0, SVG Export Plug-In . SVG Version: 6.00 Build 0)  -->
<!DOCTYPE svg PUBLIC "-//W3C//DTD SVG 1.1//EN" "http://www.w3.org/Graphics/SVG/1.1/DTD/svg11.dtd">
<svg version="1.1" id="Layer_1" xmlns="http://www.w3.org/2000/svg" xmlns:xlink="http://www.w3.org/1999/xlink" x="0px" y="0px"
	 viewBox="0 0 144.6 119.9" enable-background="new 0 0 144.6 119.9" xml:space="preserve">
<path fill="#2BA8E0" d="M113.3,27.3L93.2,49.6l-7.1-22.3h-8.2L63.8,59.7l9.1-32.4H42.3l-3.4,13.6h10.4l-2.1,6.8
	c-1.5,0.6-3.3,1-5.5,1c-6.6,0-12.3-3.9-12.3-11.8c0-5.2,1.8-9.8,5.2-13.2c3.3-3.3,8.1-5.4,14.1-5.4c5.6,0,11.1,2.4,14.7,5.7
	l13.2-13.6C72.1,5.2,61.9,0,49.9,0c-13.3,0-24,4.6-31.3,11.9C11.8,18.7,8,27.9,8,37.9c0,20,15.6,28.3,31.4,28.3
	c5.3,0,10.4-0.9,15.1-2.4l-7.9,27h20.8l9.2-31.5l8,22.6h0.4l21.2-22.6L97,90.8h21.1l18.5-63.5H113.3z"/>
<g>
	<g>
		<path fill="#2BA8E0" d="M0,111.2c0-3.1,1.2-5.9,3.3-8c2.2-2.2,5.6-3.7,9.7-3.7c3.7,0,6.9,1.6,8.2,3.2l-4.1,4.2
			c-1.1-1-2.8-1.8-4.5-1.8c-1.8,0-3.3,0.6-4.3,1.7c-1,1-1.6,2.5-1.6,4.1c0,2.4,1.8,3.6,3.8,3.6c0.7,0,1.3-0.1,1.7-0.3l0.6-2.1H9.5
			l1.1-4.2H20l-2.8,10c-1.9,1.1-4.7,2-7.5,2C4.8,119.9,0,117.4,0,111.2z"/>
		<path fill="#2BA8E0" d="M22.3,103.3h13.8l-1.2,4.5h-8.5l-0.4,1.6h7.9l-1,3.9h-7.9l-0.5,1.8h8.6l-1.2,4.5h-14L22.3,103.3z"/>
		<path fill="#2BA8E0" d="M37.5,103.3h5.1l3.7,7.7l2.1-7.7h5.4l-4.4,16.2h-4.8l-3.9-8.1l-2.2,8.1h-5.4L37.5,103.3z"/>
		<path fill="#2BA8E0" d="M55.7,99.9h6.5l2.4,6.9l6-6.9h7.2l-5.3,19.6H66l2.6-9.7l-6.4,7h-0.1l-2.6-7l-2.6,9.7h-6.4L55.7,99.9z"/>
		<path fill="#2BA8E0" d="M84.2,103.2h5.4l2.5,16.4h-5.8l-0.3-2.2h-5.7l-1.4,2.2H73L84.2,103.2z M85.7,113.5l-0.4-3.9l-2.5,3.9H85.7
			z"/>
		<path fill="#2BA8E0" d="M92.3,112.6c0-2.6,1-4.9,2.7-6.7c1.9-1.9,4.6-3,8-3c3.1,0,5.7,1.3,6.8,2.7l-3.4,3.5
			c-0.9-0.9-2.3-1.5-3.8-1.5c-1.5,0-2.8,0.5-3.6,1.4c-0.9,0.9-1.3,2-1.3,3.4c0,2,1.5,3,3.2,3c0.6,0,1-0.1,1.4-0.3l0.5-1.7h-2.7
			l0.9-3.5h7.8l-2.3,8.3c-1.6,1-3.9,1.7-6.2,1.7C96.3,119.9,92.3,117.7,92.3,112.6z"/>
		<path fill="#2BA8E0" d="M108.5,116.5h3.1l-0.8,3h-3.1L108.5,116.5z"/>
		<path fill="#2BA8E0" d="M112.5,115.7c0-1.3,0.5-2.8,1.7-3.9c1-1,2.4-1.6,4.3-1.6c2,0,3.4,1.1,3.8,2.7l-2.8,1.2
			c-0.2-0.8-0.7-1.1-1.4-1.1c-0.6,0-1.1,0.3-1.5,0.6c-0.5,0.5-0.8,1.2-0.8,1.9c0,1,0.6,1.6,1.5,1.6c0.7,0,1.3-0.3,1.8-1l2.1,1.7
			c-0.9,1.2-2.3,2-4.2,2C114.3,119.7,112.5,118.2,112.5,115.7z"/>
		<path fill="#2BA8E0" d="M132.1,114.3c0,1.5-0.6,2.8-1.6,3.8c-1,1-2.3,1.6-3.8,1.6c-2.7,0-4.6-1.8-4.6-4.2c0-1.5,0.6-2.8,1.6-3.8
			c1-1,2.3-1.6,3.8-1.6C130.3,110.1,132.1,111.9,132.1,114.3z M128.3,116.4c0.5-0.5,0.8-1.2,0.8-1.8c0-1-0.6-1.7-1.7-1.7
			c-0.6,0-1,0.2-1.4,0.6c-0.5,0.5-0.8,1.2-0.8,1.8c0,1,0.6,1.7,1.7,1.7C127.5,117,127.9,116.8,128.3,116.4z"/>
		<path fill="#2BA8E0" d="M134.2,110.3h3l1.1,3.2l2.9-3.2h3.4l-2.5,9.2h-3.1l1.2-4.6l-3,3.3h-0.1l-1.2-3.3l-1.2,4.6h-3L134.2,110.3z
			"/>
	</g>
</g>
</svg>
