<?xml version="1.0" encoding="utf-8"?>
<!-- Generator: Adobe Illustrator 19.1.0, SVG Export Plug-In . SVG Version: 6.00 Build 0)  -->
<svg version="1.1" id="Layer_1" xmlns="http://www.w3.org/2000/svg" xmlns:xlink="http://www.w3.org/1999/xlink" x="0px" y="0px"
	 viewBox="0 0 100 100" style="enable-background:new 0 0 100 100;" xml:space="preserve">
<style type="text/css">
	.st0{fill:#B1E1F0;}
	.st1{fill:#D1D3D4;}
	.st2{fill:#FFFFFF;}
	.st3{fill:none;}
	.st4{fill:#2DA7DF;}
</style>
<path class="st0" d="M50,2c26.5,0,48,21.5,48,48S76.5,98,50,98S2,76.5,2,50S23.5,2,50,2 M50,0C22.4,0,0,22.4,0,50s22.4,50,50,50
	s50-22.4,50-50S77.6,0,50,0L50,0z"/>
<circle class="st1" cx="53.9" cy="42.5" r="4.6"/>
<polygon class="st2" points="36.2,55.5 36.2,56.3 36.6,55.4 "/>
<path class="st1" d="M28.9,74.7c-0.6,1.5,0.1,3.2,1.6,3.8c0.3,0.1,0.7,0.3,1.1,0.4c4.8,1.8,11.2,2.7,19.2,2.7c10.2,0,15.9-1.6,19-3
	c1.4-0.7,2-2.3,1.4-3.8l-12-27.3c0,0-4.2,0.7-9.2,0.7s-8.9-0.7-8.9-0.7L28.9,74.7z"/>
<circle class="st1" cx="48.2" cy="17" r="4.4"/>
<path class="st3" d="M59.3,35.4l1.4-10.2c-3.7,1.1-9.2,1.2-10.7,1.2c-1.5,0-6.7-0.1-10.3-1.1l1.5,10.6c0,0.3,0,0.5-0.1,0.8
	L23.7,77.4c1.4,1.7,7.6,7,27.2,7c19.9,0,24.6-5.8,25.5-7.4l-17-40.8C59.3,36,59.2,35.7,59.3,35.4z"/>
<path class="st4" d="M79.4,76.5L62.4,35.6c0-0.1-0.1-0.2,0-0.3L64,23.6c0-0.1,0-0.2,0-0.3c0.2-0.3,0.3-0.6,0.3-0.9
	c0-2.7-5.6-3.7-9.9-4c-0.3,0-0.5,0.2-0.6,0.4c-0.2,0.4-0.4,0.9-0.6,1.2c-0.3,0.4,0,0.9,0.5,1c1.4,0.1,2.5,0.2,3.5,0.4
	c0.7,0.1,0.7,1.2,0,1.3c-1.9,0.2-4.2,0.3-6.9,0.3c-2.8,0-5.2-0.2-7.1-0.3c-0.7-0.1-0.8-1.2,0-1.3c0,0,0,0,0.1,0
	c0.5-0.1,0.7-0.6,0.4-1c-0.3-0.4-0.5-0.8-0.7-1.2c-0.1-0.3-0.4-0.4-0.7-0.4c-3.3,0.5-6.4,1.6-6.4,3.6c0,0.5,0.2,0.9,0.5,1.3
	c0.1,0.1,0.1,0.2,0.1,0.3l1.7,11.9c0,0.1,0,0.2,0,0.3L20.6,77c-0.2,0.4-0.2,0.9,0,1.3c0.1,0.3,1.4,2.6,5.8,4.8
	c5.7,2.9,13.9,4.3,24.4,4.3c10.5,0,18.5-1.6,23.6-4.6c4.1-2.5,4.9-5,5-5.3C79.6,77.1,79.6,76.8,79.4,76.5z M50.9,84.4
	c-18.5,0-25.1-4.8-26.9-6.7c-0.2-0.2-0.2-0.5-0.1-0.7L41,36.9c0.2-0.4,0.2-0.8,0.2-1.1l-1.3-9.5c-0.1-0.4,0.3-0.8,0.8-0.7
	c3.6,0.8,8.1,0.9,9.5,0.9c1.4,0,6.2-0.1,9.8-1c0.4-0.1,0.8,0.3,0.8,0.7l-1.3,9.2c0,0.3,0,0.5,0.1,0.8l16.9,40.5
	c0.1,0.2,0.1,0.4-0.1,0.6C74.9,79.2,69.7,84.4,50.9,84.4z"/>
<circle class="st1" cx="50" cy="34.9" r="2.3"/>
<path class="st1" d="M51.4,29.1c0,1.8,1.5,3.3,3.3,3.3c1.8,0,3.3-1.5,3.3-3.3c0-0.6-0.1-1.1-0.4-1.5c-1.9,0.2-3.9,0.3-5.9,0.3
	C51.5,28.3,51.4,28.7,51.4,29.1z"/>
</svg>
